<?xml version="1.0" encoding="UTF-8" standalone="no"?><!DOCTYPE svg PUBLIC "-//W3C//DTD SVG 1.1//EN" "http://www.w3.org/Graphics/SVG/1.1/DTD/svg11.dtd"><svg width="100%" height="100%" viewBox="0 0 5225 5225" version="1.1" xmlns="http://www.w3.org/2000/svg" xmlns:xlink="http://www.w3.org/1999/xlink" xml:space="preserve" xmlns:serif="http://www.serif.com/" style="fill-rule:evenodd;clip-rule:evenodd;stroke-linejoin:round;stroke-miterlimit:2;"><rect id="NLA-logo-white" serif:id="NLA logo white" x="0" y="0" width="5225" height="5225" style="fill:none;"/><path d="M2859.447,1115.421c-1.358,-1.358 -91.393,-92.671 -101.257,-102.818c-45.032,-46.324 -18.616,-97.37 10.864,-115.676c55.166,-34.256 99.246,23.185 136.379,60.262c8.982,8.969 108.519,108.357 113.004,111.375c10.832,7.288 11.692,-1.395 166.733,-154.108c67.447,-66.435 143.857,-4.333 124.436,67.986c-3.922,14.603 -4.87,14.538 -191.509,201.866c-103.335,103.716 -145.911,44.876 -258.65,-68.887Z" style="fill:#a1cf48;"/><path d="M2900.653,1441.797c-13.743,-6.756 -98.196,-48.273 -145.879,-123.954c-21.34,-33.87 23.156,-104.384 77.536,-32.888c88.542,116.409 272.025,145.447 387.034,-4.947c41.811,-54.675 112.395,-9.737 63.396,53.749c-17.897,23.188 -139.903,181.264 -345.587,120.95c-2.972,-0.872 -2.704,-0.956 -36.5,-12.91Z" style="fill:#a0cd48;"/><path d="M2028.522,1345.201c240.684,-97.167 563.476,-32.918 731.549,242.929c48.165,79.05 485.254,903.522 492.599,904.955c9.298,1.814 4.217,-6.348 4.715,-276.037c1.119,-605.441 -7.57,-609.976 22.374,-657.326c51.094,-80.797 219.018,-66.568 220.635,75.62c1.105,97.148 -1.047,97.068 -0.467,1214.428c0.08,153.246 -226.213,182.544 -361.367,-44.65c-76.485,-128.571 -652.583,-1221.225 -704.254,-1290.599c-89.137,-119.678 -173.953,-131.089 -175.686,-131.498c-0.927,-12.97 -7.299,-12.006 -10.391,-14.164c-15.737,-10.981 -99.848,-33.898 -133.172,-34.823c-28.457,-0.79 -28.264,-1.966 -30.62,-1.286c-2.68,0.774 -1.995,2.155 -31.131,15.694c-21.927,10.189 -21.157,0.149 -24.783,-3.245Z" style="fill:#012315;"/><path d="M2495.701,2053.783c0.652,104.799 0.977,787.51 -0.303,800.791c-15.38,159.533 -242.302,148.864 -244.701,-9.852c-0.097,-6.385 0.117,-871.104 0.163,-872.616c4.71,-156.55 227.962,-137.714 244.842,81.677Z" style="fill:#012315;"/><path d="M2028.522,1345.201c31.614,-12.989 51.403,-12.287 55.915,-12.45c2.45,-0.088 2.162,0.496 30.62,1.286c33.324,0.925 117.435,23.841 133.172,34.823c3.093,2.158 17.176,11.598 19.432,15.264c-44.067,-8.253 -171.333,-34.417 -292.425,65.077c-119.091,97.85 -112.162,258.81 -111.116,283.118c4.485,104.186 -151.01,134.013 -53.998,197.044c56.987,37.026 -19.629,57.767 1.071,92.586c9.551,16.066 27.165,14.894 13.529,27.313c-36.688,33.411 24.888,37.947 15.831,86.376c-25.131,134.378 74.64,70.326 176.176,134.528c15.399,9.737 177.068,87.115 144.465,396.005c-0.904,8.569 -10.183,7.79 -10.426,-0.107c-1.505,-48.854 -0.976,-48.767 -10.922,-96.786c2.325,-2.286 -81.912,-195.917 -183.163,-233.6c-14.678,-5.463 -94.31,-36.393 -122.383,-41.651c-7.736,-1.449 -112.782,-6.579 -116.19,-92.299c-1.326,-33.364 27.821,-61.344 -13.21,-94.683c-39.258,-31.899 8.497,-55.534 1.734,-63.354c-15.356,-17.755 -41.496,-19.256 -10.891,-61.916c43.727,-60.951 -70.414,-52.387 -48.847,-111.239c12.013,-32.783 114.691,-88.2 112.812,-153.559c-1.48,-51.479 -3.309,-52.288 25.501,-126.741c73.628,-190.273 233.479,-240.993 243.315,-245.034Z" style="fill:#99c944;"/><g><g><path d="M1382.361,2391.509c18.597,-40.593 36.801,-105.347 85.343,-84.445c55.096,23.725 2.474,80.472 -18.716,150.561c-81.56,269.774 32.238,474.002 37.323,484.472c30.696,63.202 -23.012,73.526 -39.674,70.537c-58.091,-10.423 -118.617,-237.792 -113.724,-372.12c5.067,-139.108 39.138,-218.481 49.447,-249.006Z" style="fill:#8bc13f;"/><path d="M1518.908,2584.569c2.191,-12.61 18.276,-105.185 43.232,-154.031c2.643,-5.173 28.607,-55.991 66.95,-28.13c49.584,36.029 -14.228,75.336 -25.371,197.246c-14.333,156.805 41.292,256.64 45.149,266.072c14.774,36.133 -22.41,71.853 -58.74,53.937c-31.231,-15.401 -59.098,-127.948 -59.911,-131.465c-25.795,-111.586 -11.628,-199.32 -11.31,-203.631Z" style="fill:#89bf3e;"/><path d="M1698.093,2696.615c-0.605,-13.144 -4.51,-98.018 18.13,-163.477c31.144,-90.047 106.861,-44.168 86.032,15.029c-62.671,178.123 46.012,246.544 -8.528,281.432c-75.952,48.585 -92.223,-112.516 -95.634,-132.983Z" style="fill:#8ac03f;"/><path d="M1947.101,2630.359c0.651,2.376 4.668,2.754 5.319,5.13c0.859,3.138 -0.904,2.794 -1.035,40.658c-0.049,14.301 -8.784,-0.623 -9.424,-5.04c-1.529,-10.542 2.817,-28.802 5.139,-40.748Z" style="fill:#7fba3b;"/></g><path d="M1926.191,2566.932c60.769,8.22 29.261,37.529 42.732,139.796c4.669,35.444 -33.305,62.923 -66.851,39.291c-23.786,-16.757 -56.153,-168.75 24.119,-179.087Z" style="fill:#88bf3e;"/></g><g transform="matrix(1,0,0,0.75188,0,0)"><g transform="matrix(684.972725,0,0,684.972725,3912.276889,4789.152802)"></g><text x="1335.294px" y="4789.153px" style="font-family:'ArialMT', 'Arial', sans-serif;font-size:684.973px;fill:#99c944;">N<tspan x="1836.81px 2300.531px 2953.89px 3417.612px " y="4789.153px 4789.153px 4789.153px 4789.153px ">KWEN</tspan></text></g><g transform="matrix(1,0,0,0.961538,0,-6.468277)"><g transform="matrix(136.668726,0,0,136.668726,3843.382444,4053.750764)"></g><text x="1397.506px" y="4053.751px" style="font-family:'ArialMT', 'Arial', sans-serif;font-size:136.669px;fill:#012315;">L<tspan x="1511.099px 1639.839px 1768.58px 1904.862px 2041.144px 2116.699px 2245.439px 2374.18px 2502.921px 2631.662px 2760.403px 2835.958px 2964.699px 3100.98px 3229.721px 3358.462px 3487.203px 3623.485px 3752.225px " y="4053.751px 4053.751px 4053.751px 4053.751px 4053.751px 4053.751px 4053.751px 4053.751px 4053.751px 4053.751px 4053.751px 4053.751px 4053.751px 4053.751px 4053.751px 4053.751px 4053.751px 4053.751px 4053.751px ">EARN.SPEAK.PRESERVE</tspan></text></g></svg>